<svg width="19" height="20" viewBox="0 0 19 20" fill="none" xmlns="http://www.w3.org/2000/svg">
<path d="M12.5953 9.48522H9.87938V6.76929C9.87938 6.69067 9.81506 6.62634 9.73644 6.62634H8.87877C8.80015 6.62634 8.73583 6.69067 8.73583 6.76929V9.48522H6.0199C5.94128 9.48522 5.87695 9.54954 5.87695 9.62816V10.4858C5.87695 10.5644 5.94128 10.6288 6.0199 10.6288H8.73583V13.3447C8.73583 13.4233 8.80015 13.4876 8.87877 13.4876H9.73644C9.81506 13.4876 9.87938 13.4233 9.87938 13.3447V10.6288H12.5953C12.6739 10.6288 12.7383 10.5644 12.7383 10.4858V9.62816C12.7383 9.54954 12.6739 9.48522 12.5953 9.48522Z" fill="#9B9A9A"/>
<path d="M9.30759 2.05212C4.88705 2.05212 1.30273 5.63644 1.30273 10.057C1.30273 14.4775 4.88705 18.0618 9.30759 18.0618C13.7281 18.0618 17.3124 14.4775 17.3124 10.057C17.3124 5.63644 13.7281 2.05212 9.30759 2.05212ZM9.30759 16.7039C5.63751 16.7039 2.6607 13.7271 2.6607 10.057C2.6607 6.3869 5.63751 3.41009 9.30759 3.41009C12.9777 3.41009 15.9545 6.3869 15.9545 10.057C15.9545 13.7271 12.9777 16.7039 9.30759 16.7039Z" fill="#9B9A9A"/>
</svg>
