<svg width="19" height="33" viewBox="0 0 19 33" fill="none" xmlns="http://www.w3.org/2000/svg">
<path d="M18.3383 0.626665C17.497 -0.208888 16.0948 -0.208888 15.2534 0.626665L0.512589 15.2663C0.3501 15.4273 0.221188 15.6186 0.133231 15.8292C0.0452743 16.0397 0 16.2655 0 16.4935C0 16.7215 0.0452743 16.9472 0.133231 17.1578C0.221188 17.3684 0.3501 17.5596 0.512589 17.7207L15.2534 32.3603C16.1123 33.2132 17.497 33.2132 18.3559 32.3603C19.2147 31.5073 19.2147 30.1321 18.3559 29.2792L5.47295 16.5022L18.3559 3.70777C19.1972 2.85481 19.1972 1.47963 18.3383 0.626665Z" fill="black"/>
</svg>
