<svg width="30" height="30" viewBox="0 0 30 30" fill="none" xmlns="http://www.w3.org/2000/svg">
<path d="M15 0C15.4973 0 15.9742 0.197544 16.3258 0.549175C16.6775 0.900806 16.875 1.37772 16.875 1.875V13.125H28.125C28.6223 13.125 29.0992 13.3225 29.4508 13.6742C29.8025 14.0258 30 14.5027 30 15C30 15.4973 29.8025 15.9742 29.4508 16.3258C29.0992 16.6775 28.6223 16.875 28.125 16.875H16.875V28.125C16.875 28.6223 16.6775 29.0992 16.3258 29.4508C15.9742 29.8025 15.4973 30 15 30C14.5027 30 14.0258 29.8025 13.6742 29.4508C13.3225 29.0992 13.125 28.6223 13.125 28.125V16.875H1.875C1.37772 16.875 0.900806 16.6775 0.549175 16.3258C0.197544 15.9742 0 15.4973 0 15C0 14.5027 0.197544 14.0258 0.549175 13.6742C0.900806 13.3225 1.37772 13.125 1.875 13.125H13.125V1.875C13.125 1.37772 13.3225 0.900806 13.6742 0.549175C14.0258 0.197544 14.5027 0 15 0V0Z" fill="white"/>
</svg>
