<svg width="19" height="33" viewBox="0 0 19 33" fill="none" xmlns="http://www.w3.org/2000/svg">
<path d="M0.661673 32.3733C1.50301 33.2089 2.90523 33.2089 3.74656 32.3733L18.4874 17.7337C18.6499 17.5727 18.7788 17.3814 18.8668 17.1708C18.9547 16.9603 19 16.7345 19 16.5065C19 16.2785 18.9547 16.0528 18.8668 15.8422C18.7788 15.6316 18.6499 15.4404 18.4874 15.2793L3.74656 0.639721C2.8877 -0.213238 1.50301 -0.213238 0.644146 0.639721C-0.214716 1.49268 -0.214716 2.86786 0.644146 3.72083L13.5271 16.4978L0.644146 29.2922C-0.197187 30.1452 -0.197187 31.5204 0.661673 32.3733Z" fill="black"/>
</svg>
