<svg width="19" height="18" viewBox="0 0 19 18" fill="none" xmlns="http://www.w3.org/2000/svg">
<path d="M2.58008 4.22888H15.9084L14.5923 15.7074C14.5472 16.1025 14.3532 16.4675 14.0477 16.7326C13.7421 16.9977 13.3464 17.1443 12.9362 17.1443H5.5523C5.14215 17.1443 4.74641 16.9977 4.44084 16.7326C4.13528 16.4675 3.94137 16.1025 3.89625 15.7074L2.58008 4.22888Z" stroke="#8DC442" stroke-width="1.07628" stroke-linecap="round" stroke-linejoin="round"/>
<path d="M5.3665 1.92587C5.50125 1.64897 5.71446 1.4149 5.98127 1.25097C6.24809 1.08704 6.55751 0.999996 6.87343 1H11.615C11.931 0.999843 12.2406 1.08681 12.5076 1.25076C12.7746 1.4147 12.9879 1.64885 13.1227 1.92587L14.2423 4.22885H4.24609L5.3665 1.92587Z" stroke="#8DC442" stroke-width="1.07628" stroke-linecap="round" stroke-linejoin="round"/>
<path d="M0.914062 4.22888H17.5744" stroke="#8DC442" stroke-width="1.07628" stroke-linecap="round" stroke-linejoin="round"/>
<path d="M7.57812 8.26489V12.301" stroke="#8DC442" stroke-width="1.07628" stroke-linecap="round" stroke-linejoin="round"/>
<path d="M10.9102 8.26489V12.301" stroke="#8DC442" stroke-width="1.07628" stroke-linecap="round" stroke-linejoin="round"/>
</svg>
