<?xml version="1.0" standalone="no"?>
<!DOCTYPE svg PUBLIC "-//W3C//DTD SVG 20010904//EN"
 "http://www.w3.org/TR/2001/REC-SVG-20010904/DTD/svg10.dtd">
<svg version="1.0" xmlns="http://www.w3.org/2000/svg"
 width="101.000000pt" height="101.000000pt" viewBox="0 0 101.000000 101.000000"
 preserveAspectRatio="xMidYMid meet">
<metadata>
Created by potrace 1.14, written by Peter Selinger 2001-2017
</metadata>
<g transform="translate(0.000000,101.000000) scale(0.100000,-0.100000)"
fill="#000000" stroke="none">
<path d="M0 505 l0 -505 505 0 505 0 0 505 0 505 -505 0 -505 0 0 -505z m736
127 l221 -257 -63 -3 c-72 -3 -61 14 -104 -165 l-24 -97 -138 0 -138 0 0 98
c0 111 -10 134 -65 152 -26 9 -44 9 -70 0 -55 -18 -65 -41 -65 -153 0 -96 -1
-98 -22 -95 -19 3 -26 18 -53 128 l-31 125 -64 5 -64 5 223 258 c122 141 225
257 229 256 4 0 107 -116 228 -257z m-292 -437 c-4 -10 -20 -15 -51 -15 -39 0
-44 2 -33 15 7 9 29 15 51 15 30 0 37 -3 33 -15z"/>
<path d="M308 618 c-2 -7 -2 -26 1 -43 8 -41 45 -42 49 -2 4 34 22 26 23 -11
1 -18 3 -21 6 -9 4 17 6 17 17 2 18 -25 48 -9 44 24 -3 29 -35 42 -49 19 -6
-10 -9 -10 -9 0 0 6 -6 12 -14 12 -8 0 -17 6 -19 13 -4 9 -8 8 -16 -3 -7 -10
-11 -11 -11 -2 0 6 -4 12 -9 12 -5 0 -11 -6 -13 -12z m29 -50 c-3 -7 -5 -2 -5
12 0 14 2 19 5 13 2 -7 2 -19 0 -25z"/>
<path d="M246 476 c-19 -64 -19 -66 -6 -66 6 0 10 6 10 14 0 13 20 26 40 26 4
0 10 -9 13 -20 3 -11 10 -20 17 -20 6 0 10 4 8 8 -1 4 -12 31 -22 60 -11 29
-25 52 -32 52 -7 0 -20 -24 -28 -54z m44 -8 c0 -5 -6 -8 -14 -8 -9 0 -12 7 -9
21 4 16 8 17 14 7 5 -7 9 -16 9 -20z"/>
<path d="M470 471 c0 -34 4 -61 10 -61 6 0 10 24 10 54 0 30 -4 58 -10 61 -6
4 -10 -17 -10 -54z"/>
<path d="M675 518 c-37 -103 -41 -135 -9 -90 19 27 41 28 49 2 6 -19 25 -28
25 -12 0 4 -8 29 -19 57 -19 50 -37 67 -46 43z m25 -43 c0 -8 -4 -15 -10 -15
-5 0 -10 7 -10 15 0 8 5 15 10 15 6 0 10 -7 10 -15z"/>
<path d="M350 454 c0 -41 4 -63 10 -59 6 3 10 23 11 43 l0 37 22 -43 c11 -23
26 -41 32 -39 14 5 19 107 6 120 -8 8 -11 -4 -11 -38 l-1 -50 -25 48 c-13 26
-29 47 -34 47 -6 0 -10 -29 -10 -66z"/>
<path d="M510 454 c0 -41 4 -63 10 -59 6 3 10 16 11 28 0 19 2 19 11 -5 5 -16
13 -28 18 -28 5 0 13 12 18 28 l10 27 1 -27 c1 -16 6 -28 11 -28 6 0 10 29 10
66 0 57 -2 65 -14 55 -8 -7 -18 -26 -21 -42 -9 -40 -20 -36 -34 11 -18 59 -31
49 -31 -26z"/>
<path d="M767 509 c-5 -9 -7 -38 -5 -65 3 -47 4 -49 36 -52 18 -2 32 1 32 7 0
6 -11 11 -25 11 -22 0 -24 4 -27 58 -2 37 -6 51 -11 41z"/>
<path d="M518 324 c-1 -31 0 -58 5 -61 4 -2 7 7 7 21 0 19 5 26 19 26 10 0 24
6 30 14 18 21 -3 56 -33 56 -22 0 -24 -5 -28 -56z m52 21 c0 -8 -9 -15 -20
-15 -11 0 -20 7 -20 15 0 8 9 15 20 15 11 0 20 -7 20 -15z"/>
<path d="M700 320 c0 -61 0 -61 27 -58 37 4 61 46 47 85 -7 22 -17 29 -42 31
l-32 3 0 -61z m60 7 c0 -23 -17 -47 -32 -47 -4 0 -8 20 -8 45 0 43 1 45 20 35
11 -6 20 -21 20 -33z"/>
<path d="M617 317 c-20 -62 -20 -67 -8 -67 5 0 11 9 14 20 7 27 33 25 40 -2 4
-12 9 -19 13 -15 11 10 -17 117 -31 117 -6 0 -19 -24 -28 -53z m29 -14 c-10
-10 -19 5 -10 18 6 11 8 11 12 0 2 -7 1 -15 -2 -18z"/>
</g>
</svg>
